<svg width="314" height="29" viewBox="0 0 314 29" fill="none" xmlns="http://www.w3.org/2000/svg">
<rect x="0.5" y="0.5" width="61" height="28" rx="14" fill="white" stroke="#5B26DD"/>
<rect x="72.5" y="0.5" width="61" height="28" rx="14" fill="white" stroke="#5B26DD"/>
<rect x="144.5" y="0.5" width="93" height="28" rx="14" fill="white" stroke="#5B26DD"/>
<path d="M26.096 12.124H27.968V9.304H29.264V17.08H27.968V13.18H26.096V12.124ZM20.384 14.812C22.064 14.236 22.976 12.844 22.976 11.416V11.104H20.756V10.072H26.468V11.104H24.284V11.416C24.284 12.712 25.148 14.044 26.768 14.596L26.132 15.616C24.956 15.196 24.116 14.392 23.648 13.372C23.192 14.5 22.292 15.412 21.032 15.844L20.384 14.812ZM22.316 19.756V16.42H23.612V18.712H29.54V19.756H22.316ZM35.2283 13.408H36.6323V9.496H37.8323V19.444H36.6323V14.452H35.2283V13.408ZM30.7403 16.9C32.2283 16.036 32.8883 14.236 32.8883 12.556V12.208H31.0883V11.164H32.8883V9.652H34.1243V11.164H35.8883V12.208H34.1243V12.556C34.1243 14.2 34.7963 15.88 36.2723 16.672L35.5643 17.632C34.5803 17.104 33.9083 16.168 33.5123 15.04C33.1403 16.252 32.4683 17.296 31.4723 17.884L30.7403 16.9ZM38.7683 19.96V9.292H40.0043V19.96H38.7683Z" fill="#5B26DD"/>
<path d="M92.8116 10.204H96.5556V11.248H94.0956V14.008H96.6396V15.04H92.8116V10.204ZM87.6756 18.676V17.608H91.8516V15.532H93.1236V17.608H97.3356V18.676H87.6756ZM88.4676 15.04V10.216H92.1516V11.272H89.7396V13.984C90.6036 13.96 91.3716 13.9 92.2356 13.72L92.3316 14.788C91.2276 15.016 90.2796 15.04 89.0916 15.04H88.4676ZM105.208 9.292H106.504V12.376H107.992V13.432H106.504V16.984H105.208V9.292ZM98.1279 14.848C100.564 14.152 102.028 12.796 102.244 11.14H98.5839V10.096H103.636C103.636 12.94 101.8 14.944 98.6679 15.88L98.1279 14.848ZM99.7239 19.756V16.204H101.02V18.712H106.924V19.756H99.7239ZM109.072 9.928H114.892V10.948H112.648C112.648 12.22 113.584 13.432 115.252 13.924L114.616 14.932C113.392 14.56 112.504 13.78 112.024 12.784C111.544 13.864 110.644 14.716 109.36 15.112L108.724 14.104C110.428 13.588 111.34 12.292 111.34 10.948H109.072V9.928ZM110.464 19.828V15.556H111.724V16.66H116.176V15.556H117.448V19.828H110.464ZM111.724 18.796H116.176V17.668H111.724V18.796ZM116.164 15.076V9.292H117.448V15.076H116.164Z" fill="#5B26DD"/>
<rect x="248.5" y="0.5" width="65" height="28" rx="14" fill="white" stroke="#5B26DD"/>
<path d="M263.311 10.06C264.739 10.06 265.819 11.272 265.999 13.228H268.015V9.28H269.299V19.984H268.015V14.26H266.011C265.879 16.324 264.787 17.62 263.311 17.62C261.739 17.62 260.599 16.144 260.599 13.828C260.599 11.524 261.739 10.06 263.311 10.06ZM261.823 13.828C261.823 15.484 262.435 16.444 263.311 16.444C264.211 16.444 264.799 15.484 264.799 13.828C264.799 12.196 264.211 11.236 263.311 11.236C262.435 11.236 261.823 12.196 261.823 13.828ZM278.42 9.292H279.716V19.984H278.42V9.292ZM271.58 17.392V10.264H276.68V11.32H272.864V16.312C274.82 16.3 276.068 16.252 277.484 15.976L277.604 17.056C276.068 17.344 274.712 17.392 272.48 17.392H271.58ZM288.464 9.292H289.748V11.524H291.236V12.58H289.748V14.644H288.464V9.292ZM281.396 13.876C283.952 13.36 285.272 12.184 285.44 10.768H281.888V9.736H286.868C286.868 12.508 285.032 14.248 281.852 14.932L281.396 13.876ZM282.824 16.12V15.1H289.748V17.932H284.132V18.832H290.096V19.852H282.848V16.948H288.476V16.12H282.824ZM292.196 10.384H296.216V14.344H293.456V16.456C294.536 16.444 295.556 16.384 296.732 16.192L296.84 17.236C295.424 17.488 294.248 17.524 292.94 17.524H292.22V13.324H294.968V11.416H292.196V10.384ZM297.368 19.432V9.496H298.58V13.396H299.78V9.292H301.004V19.96H299.78V14.44H298.58V19.432H297.368Z" fill="#5B26DD"/>
<path d="M164.394 9.292H165.63V19.96H164.394V9.292ZM156.618 13.9C156.618 11.548 157.518 10.096 158.898 10.096C160.182 10.096 161.046 11.308 161.178 13.312H162.246V9.496H163.458V19.456H162.246V14.356H161.19C161.082 16.444 160.206 17.716 158.898 17.716C157.518 17.716 156.618 16.264 156.618 13.9ZM157.794 13.9C157.794 15.58 158.202 16.504 158.898 16.504C159.618 16.504 160.026 15.58 160.026 13.9C160.026 12.232 159.618 11.32 158.898 11.32C158.202 11.32 157.794 12.232 157.794 13.9ZM174.498 9.292H175.794V19.984H174.498V9.292ZM167.658 17.392V10.264H172.758V11.32H168.942V16.312C170.898 16.3 172.146 16.252 173.562 15.976L173.682 17.056C172.146 17.344 170.79 17.392 168.558 17.392H167.658ZM185.082 9.28H186.366V19.984H185.082V14.212H183.078V13.168H185.082V9.28ZM177.966 17.5V10.216H182.898V11.272H179.25V13.192H182.49V14.212H179.25V16.456C180.894 16.444 182.094 16.384 183.474 16.156L183.594 17.2C182.058 17.452 180.714 17.5 178.806 17.5H177.966ZM194.97 9.28H196.266V13.468H197.85V14.536H196.266V19.948H194.97V9.28ZM187.938 17.044C190.518 15.736 191.91 13.9 192.162 11.452H188.49V10.408H193.47C193.47 13.54 192.174 16.276 188.67 18.028L187.938 17.044ZM208.272 9.292H209.568V12.376H211.056V13.432H209.568V16.984H208.272V9.292ZM201.192 14.848C203.628 14.152 205.092 12.796 205.308 11.14H201.648V10.096H206.7C206.7 12.94 204.864 14.944 201.732 15.88L201.192 14.848ZM202.788 19.756V16.204H204.084V18.712H209.988V19.756H202.788ZM218.725 9.28H220.021V13.348H221.641V14.416H220.021V19.984H218.725V9.28ZM212.161 17.368V10.3H217.129V11.344H213.445V16.288C215.137 16.276 216.433 16.216 217.873 15.94L218.005 17.02C216.385 17.32 214.945 17.368 213.025 17.368H212.161ZM224.653 9.964L224.449 16.684H223.273L223.045 9.964H224.653ZM223.117 18.532C223.117 18.1 223.429 17.8 223.873 17.8C224.293 17.8 224.605 18.1 224.605 18.532C224.605 18.964 224.293 19.276 223.873 19.276C223.429 19.276 223.117 18.964 223.117 18.532Z" fill="#5B26DD"/>
</svg>
